<svg width="339" height="63" viewBox="0 0 339 63" fill="none" xmlns="http://www.w3.org/2000/svg">
    <path d="M19 1H283.5C300.345 1 314 14.6553 314 31.5V62H19V1Z" fill="white"/>
    <mask id="path-2-outside-1_0_1" maskUnits="userSpaceOnUse" x="0" y="0" width="339" height="63" fill="black">
        <rect fill="white" width="339" height="63"/>
        <path d="M8.488 54V9.2H21.16V54H8.488ZM14.184 37.936V27.76H40.744V37.936H14.184ZM14.504 20.144V9.2H43.24V20.144H14.504ZM51.5705 54V9.2H87.7305V19.632H63.7305V43.568H88.6905V54H51.5705ZM57.8425 36.208V26.352H85.1705V36.208H57.8425ZM108.736 54V20.144H93.3755V9.2H137.216V20.144H121.408V54H108.736ZM164.963 54.64C161.294 54.64 157.88 54.064 154.723 52.912C151.566 51.76 148.814 50.16 146.467 48.112C144.12 46.064 142.307 43.632 141.027 40.816C139.747 37.9573 139.107 34.8 139.107 31.344C139.107 27.9307 139.768 24.816 141.091 22C142.414 19.1413 144.227 16.688 146.531 14.64C148.878 12.5493 151.63 10.928 154.787 9.776C157.987 8.624 161.422 8.048 165.091 8.048C167.523 8.048 169.87 8.34666 172.131 8.944C174.392 9.49866 176.504 10.288 178.467 11.312C180.472 12.2933 182.222 13.488 183.715 14.896L176.291 24.176C175.438 23.3227 174.456 22.5547 173.347 21.872C172.28 21.1893 171.022 20.6347 169.571 20.208C168.163 19.7813 166.563 19.568 164.771 19.568C163.15 19.568 161.571 19.824 160.035 20.336C158.499 20.848 157.134 21.616 155.939 22.64C154.787 23.664 153.87 24.9227 153.187 26.416C152.504 27.8667 152.163 29.552 152.163 31.472C152.163 33.3493 152.504 35.0133 153.187 36.464C153.912 37.9147 154.915 39.1307 156.195 40.112C157.475 41.0933 158.947 41.8613 160.611 42.416C162.275 42.9707 164.088 43.248 166.051 43.248C167.843 43.248 169.443 42.992 170.851 42.48C172.302 41.968 173.582 41.3493 174.691 40.624C175.843 39.8987 176.867 39.152 177.763 38.384L183.715 47.984C182.563 49.0933 181.006 50.16 179.043 51.184C177.08 52.208 174.883 53.04 172.451 53.68C170.019 54.32 167.523 54.64 164.963 54.64ZM220.788 54V9.2H233.46V54H220.788ZM190.068 54V9.2H202.74V54H190.068ZM194.868 37.36L194.932 26.224H227.764V37.36H194.868ZM245.181 54V9.2H275.901V14.064H250.173V49.136H275.773V54H245.181ZM247.677 33.392V28.528H272.317V33.392H247.677ZM286.95 54V9.2H307.302C309.948 9.2 312.337 9.79733 314.47 10.992C316.604 12.1867 318.289 13.8293 319.526 15.92C320.764 17.968 321.382 20.2933 321.382 22.896C321.382 25.456 320.742 27.76 319.462 29.808C318.225 31.856 316.518 33.4773 314.342 34.672C312.166 35.8667 309.756 36.464 307.11 36.464H291.942V54H286.95ZM317.478 54L304.678 34.288L309.606 32.688L323.558 54H317.478ZM291.942 31.6H307.11C308.902 31.6 310.46 31.2373 311.782 30.512C313.148 29.744 314.214 28.6987 314.982 27.376C315.75 26.0533 316.134 24.56 316.134 22.896C316.134 21.232 315.708 19.7387 314.854 18.416C314.044 17.0507 312.892 15.984 311.398 15.216C309.948 14.448 308.262 14.064 306.342 14.064H291.942V31.6Z"/>
    </mask>
    <path d="M8.488 54V9.2H21.16V54H8.488ZM14.184 37.936V27.76H40.744V37.936H14.184ZM14.504 20.144V9.2H43.24V20.144H14.504ZM51.5705 54V9.2H87.7305V19.632H63.7305V43.568H88.6905V54H51.5705ZM57.8425 36.208V26.352H85.1705V36.208H57.8425ZM108.736 54V20.144H93.3755V9.2H137.216V20.144H121.408V54H108.736ZM164.963 54.64C161.294 54.64 157.88 54.064 154.723 52.912C151.566 51.76 148.814 50.16 146.467 48.112C144.12 46.064 142.307 43.632 141.027 40.816C139.747 37.9573 139.107 34.8 139.107 31.344C139.107 27.9307 139.768 24.816 141.091 22C142.414 19.1413 144.227 16.688 146.531 14.64C148.878 12.5493 151.63 10.928 154.787 9.776C157.987 8.624 161.422 8.048 165.091 8.048C167.523 8.048 169.87 8.34666 172.131 8.944C174.392 9.49866 176.504 10.288 178.467 11.312C180.472 12.2933 182.222 13.488 183.715 14.896L176.291 24.176C175.438 23.3227 174.456 22.5547 173.347 21.872C172.28 21.1893 171.022 20.6347 169.571 20.208C168.163 19.7813 166.563 19.568 164.771 19.568C163.15 19.568 161.571 19.824 160.035 20.336C158.499 20.848 157.134 21.616 155.939 22.64C154.787 23.664 153.87 24.9227 153.187 26.416C152.504 27.8667 152.163 29.552 152.163 31.472C152.163 33.3493 152.504 35.0133 153.187 36.464C153.912 37.9147 154.915 39.1307 156.195 40.112C157.475 41.0933 158.947 41.8613 160.611 42.416C162.275 42.9707 164.088 43.248 166.051 43.248C167.843 43.248 169.443 42.992 170.851 42.48C172.302 41.968 173.582 41.3493 174.691 40.624C175.843 39.8987 176.867 39.152 177.763 38.384L183.715 47.984C182.563 49.0933 181.006 50.16 179.043 51.184C177.08 52.208 174.883 53.04 172.451 53.68C170.019 54.32 167.523 54.64 164.963 54.64ZM220.788 54V9.2H233.46V54H220.788ZM190.068 54V9.2H202.74V54H190.068ZM194.868 37.36L194.932 26.224H227.764V37.36H194.868ZM245.181 54V9.2H275.901V14.064H250.173V49.136H275.773V54H245.181ZM247.677 33.392V28.528H272.317V33.392H247.677ZM286.95 54V9.2H307.302C309.948 9.2 312.337 9.79733 314.47 10.992C316.604 12.1867 318.289 13.8293 319.526 15.92C320.764 17.968 321.382 20.2933 321.382 22.896C321.382 25.456 320.742 27.76 319.462 29.808C318.225 31.856 316.518 33.4773 314.342 34.672C312.166 35.8667 309.756 36.464 307.11 36.464H291.942V54H286.95ZM317.478 54L304.678 34.288L309.606 32.688L323.558 54H317.478ZM291.942 31.6H307.11C308.902 31.6 310.46 31.2373 311.782 30.512C313.148 29.744 314.214 28.6987 314.982 27.376C315.75 26.0533 316.134 24.56 316.134 22.896C316.134 21.232 315.708 19.7387 314.854 18.416C314.044 17.0507 312.892 15.984 311.398 15.216C309.948 14.448 308.262 14.064 306.342 14.064H291.942V31.6Z" fill="black"/>
    <path d="M8.488 54H0.488V62H8.488V54ZM8.488 9.2V1.2H0.488V9.2H8.488ZM21.16 9.2H29.16V1.2H21.16V9.2ZM21.16 54V62H29.16V54H21.16ZM14.184 37.936H6.184V45.936H14.184V37.936ZM14.184 27.76V19.76H6.184V27.76H14.184ZM40.744 27.76H48.744V19.76H40.744V27.76ZM40.744 37.936V45.936H48.744V37.936H40.744ZM14.504 20.144H6.504V28.144H14.504V20.144ZM14.504 9.2V1.2H6.504V9.2H14.504ZM43.24 9.2H51.24V1.2H43.24V9.2ZM43.24 20.144V28.144H51.24V20.144H43.24ZM8.488 54H16.488V9.2H8.488H0.488V54H8.488ZM8.488 9.2V17.2H21.16V9.2V1.2H8.488V9.2ZM21.16 9.2H13.16V54H21.16H29.16V9.2H21.16ZM21.16 54V46H8.488V54V62H21.16V54ZM14.184 37.936H22.184V27.76H14.184H6.184V37.936H14.184ZM14.184 27.76V35.76H40.744V27.76V19.76H14.184V27.76ZM40.744 27.76H32.744V37.936H40.744H48.744V27.76H40.744ZM40.744 37.936V29.936H14.184V37.936V45.936H40.744V37.936ZM14.504 20.144H22.504V9.2H14.504H6.504V20.144H14.504ZM14.504 9.2V17.2H43.24V9.2V1.2H14.504V9.2ZM43.24 9.2H35.24V20.144H43.24H51.24V9.2H43.24ZM43.24 20.144V12.144H14.504V20.144V28.144H43.24V20.144ZM51.5705 54H43.5705V62H51.5705V54ZM51.5705 9.2V1.2H43.5705V9.2H51.5705ZM87.7305 9.2H95.7305V1.2H87.7305V9.2ZM87.7305 19.632V27.632H95.7305V19.632H87.7305ZM63.7305 19.632V11.632H55.7305V19.632H63.7305ZM63.7305 43.568H55.7305V51.568H63.7305V43.568ZM88.6905 43.568H96.6905V35.568H88.6905V43.568ZM88.6905 54V62H96.6905V54H88.6905ZM57.8425 36.208H49.8425V44.208H57.8425V36.208ZM57.8425 26.352V18.352H49.8425V26.352H57.8425ZM85.1705 26.352H93.1705V18.352H85.1705V26.352ZM85.1705 36.208V44.208H93.1705V36.208H85.1705ZM51.5705 54H59.5705V9.2H51.5705H43.5705V54H51.5705ZM51.5705 9.2V17.2H87.7305V9.2V1.2H51.5705V9.2ZM87.7305 9.2H79.7305V19.632H87.7305H95.7305V9.2H87.7305ZM87.7305 19.632V11.632H63.7305V19.632V27.632H87.7305V19.632ZM63.7305 19.632H55.7305V43.568H63.7305H71.7305V19.632H63.7305ZM63.7305 43.568V51.568H88.6905V43.568V35.568H63.7305V43.568ZM88.6905 43.568H80.6905V54H88.6905H96.6905V43.568H88.6905ZM88.6905 54V46H51.5705V54V62H88.6905V54ZM57.8425 36.208H65.8425V26.352H57.8425H49.8425V36.208H57.8425ZM57.8425 26.352V34.352H85.1705V26.352V18.352H57.8425V26.352ZM85.1705 26.352H77.1705V36.208H85.1705H93.1705V26.352H85.1705ZM85.1705 36.208V28.208H57.8425V36.208V44.208H85.1705V36.208ZM108.736 54H100.736V62H108.736V54ZM108.736 20.144H116.736V12.144H108.736V20.144ZM93.3755 20.144H85.3755V28.144H93.3755V20.144ZM93.3755 9.2V1.2H85.3755V9.2H93.3755ZM137.216 9.2H145.216V1.2H137.216V9.2ZM137.216 20.144V28.144H145.216V20.144H137.216ZM121.408 20.144V12.144H113.408V20.144H121.408ZM121.408 54V62H129.408V54H121.408ZM108.736 54H116.736V20.144H108.736H100.736V54H108.736ZM108.736 20.144V12.144H93.3755V20.144V28.144H108.736V20.144ZM93.3755 20.144H101.376V9.2H93.3755H85.3755V20.144H93.3755ZM93.3755 9.2V17.2H137.216V9.2V1.2H93.3755V9.2ZM137.216 9.2H129.216V20.144H137.216H145.216V9.2H137.216ZM137.216 20.144V12.144H121.408V20.144V28.144H137.216V20.144ZM121.408 20.144H113.408V54H121.408H129.408V20.144H121.408ZM121.408 54V46H108.736V54V62H121.408V54ZM154.723 52.912L151.981 60.4274L151.981 60.4274L154.723 52.912ZM146.467 48.112L151.727 42.0846L151.727 42.0846L146.467 48.112ZM141.027 40.816L133.726 44.0853L133.735 44.1059L133.744 44.1264L141.027 40.816ZM141.091 22L148.332 25.4011L148.342 25.3802L148.351 25.3593L141.091 22ZM146.531 14.64L151.846 20.6193L151.853 20.6133L146.531 14.64ZM154.787 9.776L152.077 2.2489L152.061 2.25472L152.045 2.26062L154.787 9.776ZM172.131 8.944L170.088 16.6787L170.156 16.6968L170.225 16.7137L172.131 8.944ZM178.467 11.312L174.766 18.4047L174.858 18.4524L174.951 18.4977L178.467 11.312ZM183.715 14.896L189.962 19.8936L194.569 14.1346L189.203 9.07529L183.715 14.896ZM176.291 24.176L170.634 29.8329L176.954 36.1531L182.538 29.1736L176.291 24.176ZM173.347 21.872L169.035 28.6102L169.094 28.6482L169.154 28.6853L173.347 21.872ZM169.571 20.208L167.251 27.8642L167.282 27.8737L167.314 27.8829L169.571 20.208ZM160.035 20.336L157.505 12.7465L157.505 12.7465L160.035 20.336ZM155.939 22.64L150.733 16.5659L150.678 16.6128L150.624 16.6607L155.939 22.64ZM153.187 26.416L160.426 29.8224L160.444 29.7823L160.463 29.7421L153.187 26.416ZM153.187 36.464L145.948 39.8704L145.989 39.9565L146.032 40.0417L153.187 36.464ZM170.851 42.48L168.188 34.9361L168.153 34.9487L168.117 34.9617L170.851 42.48ZM174.691 40.624L170.428 33.8541L170.37 33.8907L170.313 33.9282L174.691 40.624ZM177.763 38.384L184.562 34.1685L179.644 26.2354L172.557 32.3099L177.763 38.384ZM183.715 47.984L189.264 53.7466L193.921 49.2626L190.514 43.7685L183.715 47.984ZM179.043 51.184L175.342 44.0913L175.342 44.0913L179.043 51.184ZM172.451 53.68L174.487 61.4166L174.487 61.4166L172.451 53.68ZM164.963 54.64V46.64C162.143 46.64 159.667 46.1999 157.465 45.3966L154.723 52.912L151.981 60.4274C156.094 61.9281 160.444 62.64 164.963 62.64V54.64ZM154.723 52.912L157.465 45.3966C155.158 44.5549 153.276 43.4366 151.727 42.0846L146.467 48.112L141.207 54.1394C144.351 56.8834 147.973 58.9651 151.981 60.4274L154.723 52.912ZM146.467 48.112L151.727 42.0846C150.235 40.7821 149.114 39.2745 148.31 37.5056L141.027 40.816L133.744 44.1264C135.5 47.9895 138.006 51.3459 141.207 54.1394L146.467 48.112ZM141.027 40.816L148.328 37.5467C147.555 35.8184 147.107 33.7906 147.107 31.344H139.107H131.107C131.107 35.8094 131.939 40.0963 133.726 44.0853L141.027 40.816ZM139.107 31.344H147.107C147.107 28.9908 147.556 27.0531 148.332 25.4011L141.091 22L133.85 18.5989C131.981 22.5789 131.107 26.8705 131.107 31.344H139.107ZM141.091 22L148.351 25.3593C149.223 23.4761 150.382 21.9207 151.846 20.6193L146.531 14.64L141.216 8.66072C138.072 11.4553 135.604 14.8066 133.83 18.6407L141.091 22ZM146.531 14.64L151.853 20.6133C153.393 19.2405 155.255 18.1212 157.529 17.2914L154.787 9.776L152.045 2.26062C148.005 3.73481 144.362 5.85814 141.209 8.66672L146.531 14.64ZM154.787 9.776L157.497 17.3031C159.761 16.4878 162.272 16.048 165.091 16.048V8.048V0.0479965C160.571 0.0479965 156.213 0.760169 152.077 2.2489L154.787 9.776ZM165.091 8.048V16.048C166.861 16.048 168.519 16.2644 170.088 16.6787L172.131 8.944L174.174 1.20929C171.22 0.428942 168.185 0.0479965 165.091 0.0479965V8.048ZM172.131 8.944L170.225 16.7137C171.896 17.1234 173.401 17.6925 174.766 18.4047L178.467 11.312L182.168 4.21932C179.607 2.88353 176.889 1.87395 174.037 1.17431L172.131 8.944ZM178.467 11.312L174.951 18.4977C176.297 19.1566 177.367 19.9064 178.227 20.7167L183.715 14.896L189.203 9.07529C187.076 7.06963 184.648 5.4301 181.983 4.12626L178.467 11.312ZM183.715 14.896L177.468 9.89844L170.044 19.1784L176.291 24.176L182.538 29.1736L189.962 19.8936L183.715 14.896ZM176.291 24.176L181.948 18.5191C180.62 17.1912 179.139 16.0428 177.54 15.0587L173.347 21.872L169.154 28.6853C169.774 29.0666 170.255 29.4541 170.634 29.8329L176.291 24.176ZM173.347 21.872L177.659 15.1338C175.846 13.9733 173.869 13.1332 171.828 12.5331L169.571 20.208L167.314 27.8829C168.175 28.1361 168.715 28.4054 169.035 28.6102L173.347 21.872ZM169.571 20.208L171.891 12.5518C169.588 11.8539 167.184 11.568 164.771 11.568V19.568V27.568C165.942 27.568 166.738 27.7088 167.251 27.8642L169.571 20.208ZM164.771 19.568V11.568C162.291 11.568 159.858 11.9622 157.505 12.7465L160.035 20.336L162.565 27.9255C163.284 27.6858 164.008 27.568 164.771 27.568V19.568ZM160.035 20.336L157.505 12.7465C155.016 13.5761 152.736 14.8488 150.733 16.5659L155.939 22.64L161.145 28.7141C161.531 28.3832 161.982 28.1199 162.565 27.9255L160.035 20.336ZM155.939 22.64L150.624 16.6607C148.588 18.4708 147.025 20.6527 145.911 23.0899L153.187 26.416L160.463 29.7421C160.714 29.1927 160.986 28.8572 161.254 28.6193L155.939 22.64ZM153.187 26.416L145.948 23.0096C144.675 25.7156 144.163 28.6038 144.163 31.472H152.163H160.163C160.163 30.5002 160.334 30.0177 160.426 29.8224L153.187 26.416ZM152.163 31.472H144.163C144.163 34.3271 144.686 37.1869 145.948 39.8704L153.187 36.464L160.426 33.0576C160.323 32.8397 160.163 32.3716 160.163 31.472H152.163ZM153.187 36.464L146.032 40.0417C147.296 42.5714 149.079 44.737 151.328 46.4609L156.195 40.112L161.062 33.7631C160.751 33.5243 160.528 33.258 160.342 32.8863L153.187 36.464ZM156.195 40.112L151.328 46.4609C153.372 48.0279 155.648 49.1945 158.081 50.0055L160.611 42.416L163.141 34.8265C162.246 34.5282 161.578 34.1587 161.062 33.7631L156.195 40.112ZM160.611 42.416L158.081 50.0055C160.652 50.8623 163.33 51.248 166.051 51.248V43.248V35.248C164.847 35.248 163.898 35.079 163.141 34.8265L160.611 42.416ZM166.051 43.248V51.248C168.597 51.248 171.148 50.8846 173.585 49.9983L170.851 42.48L168.117 34.9617C167.738 35.0994 167.089 35.248 166.051 35.248V43.248ZM170.851 42.48L173.514 50.0239C175.474 49.3321 177.346 48.4461 179.069 47.3198L174.691 40.624L170.313 33.9282C169.817 34.2525 169.13 34.6039 168.188 34.9361L170.851 42.48ZM174.691 40.624L178.954 47.3939C180.388 46.4909 181.735 45.5159 182.969 44.4581L177.763 38.384L172.557 32.3099C171.999 32.7881 171.298 33.3064 170.428 33.8541L174.691 40.624ZM177.763 38.384L170.964 42.5995L176.916 52.1995L183.715 47.984L190.514 43.7685L184.562 34.1685L177.763 38.384ZM183.715 47.984L178.166 42.2214C177.729 42.6423 176.868 43.2955 175.342 44.0913L179.043 51.184L182.744 58.2767C185.144 57.0245 187.397 55.5444 189.264 53.7466L183.715 47.984ZM179.043 51.184L175.342 44.0913C173.975 44.8049 172.346 45.4351 170.415 45.9434L172.451 53.68L174.487 61.4166C177.42 60.6449 180.186 59.6111 182.744 58.2767L179.043 51.184ZM172.451 53.68L170.415 45.9434C168.66 46.4054 166.848 46.64 164.963 46.64V54.64V62.64C168.198 62.64 171.378 62.2346 174.487 61.4166L172.451 53.68ZM220.788 54H212.788V62H220.788V54ZM220.788 9.2V1.2H212.788V9.2H220.788ZM233.46 9.2H241.46V1.2H233.46V9.2ZM233.46 54V62H241.46V54H233.46ZM190.068 54H182.068V62H190.068V54ZM190.068 9.2V1.2H182.068V9.2H190.068ZM202.74 9.2H210.74V1.2H202.74V9.2ZM202.74 54V62H210.74V54H202.74ZM194.868 37.36L186.868 37.314L186.822 45.36H194.868V37.36ZM194.932 26.224V18.224H186.978L186.932 26.178L194.932 26.224ZM227.764 26.224H235.764V18.224H227.764V26.224ZM227.764 37.36V45.36H235.764V37.36H227.764ZM220.788 54H228.788V9.2H220.788H212.788V54H220.788ZM220.788 9.2V17.2H233.46V9.2V1.2H220.788V9.2ZM233.46 9.2H225.46V54H233.46H241.46V9.2H233.46ZM233.46 54V46H220.788V54V62H233.46V54ZM190.068 54H198.068V9.2H190.068H182.068V54H190.068ZM190.068 9.2V17.2H202.74V9.2V1.2H190.068V9.2ZM202.74 9.2H194.74V54H202.74H210.74V9.2H202.74ZM202.74 54V46H190.068V54V62H202.74V54ZM194.868 37.36L202.868 37.406L202.932 26.27L194.932 26.224L186.932 26.178L186.868 37.314L194.868 37.36ZM194.932 26.224V34.224H227.764V26.224V18.224H194.932V26.224ZM227.764 26.224H219.764V37.36H227.764H235.764V26.224H227.764ZM227.764 37.36V29.36H194.868V37.36V45.36H227.764V37.36ZM245.181 54H237.181V62H245.181V54ZM245.181 9.2V1.2H237.181V9.2H245.181ZM275.901 9.2H283.901V1.2H275.901V9.2ZM275.901 14.064V22.064H283.901V14.064H275.901ZM250.173 14.064V6.064H242.173V14.064H250.173ZM250.173 49.136H242.173V57.136H250.173V49.136ZM275.773 49.136H283.773V41.136H275.773V49.136ZM275.773 54V62H283.773V54H275.773ZM247.677 33.392H239.677V41.392H247.677V33.392ZM247.677 28.528V20.528H239.677V28.528H247.677ZM272.317 28.528H280.317V20.528H272.317V28.528ZM272.317 33.392V41.392H280.317V33.392H272.317ZM245.181 54H253.181V9.2H245.181H237.181V54H245.181ZM245.181 9.2V17.2H275.901V9.2V1.2H245.181V9.2ZM275.901 9.2H267.901V14.064H275.901H283.901V9.2H275.901ZM275.901 14.064V6.064H250.173V14.064V22.064H275.901V14.064ZM250.173 14.064H242.173V49.136H250.173H258.173V14.064H250.173ZM250.173 49.136V57.136H275.773V49.136V41.136H250.173V49.136ZM275.773 49.136H267.773V54H275.773H283.773V49.136H275.773ZM275.773 54V46H245.181V54V62H275.773V54ZM247.677 33.392H255.677V28.528H247.677H239.677V33.392H247.677ZM247.677 28.528V36.528H272.317V28.528V20.528H247.677V28.528ZM272.317 28.528H264.317V33.392H272.317H280.317V28.528H272.317ZM272.317 33.392V25.392H247.677V33.392V41.392H272.317V33.392ZM286.95 54H278.95V62H286.95V54ZM286.95 9.2V1.2H278.95V9.2H286.95ZM319.526 15.92L312.642 19.9946L312.66 20.0258L312.679 20.0569L319.526 15.92ZM319.462 29.808L312.679 25.568L312.646 25.6193L312.615 25.6711L319.462 29.808ZM314.342 34.672L310.492 27.6594L310.492 27.6594L314.342 34.672ZM291.942 36.464V28.464H283.942V36.464H291.942ZM291.942 54V62H299.942V54H291.942ZM317.478 54L310.769 58.3568L313.135 62H317.478V54ZM304.678 34.288L302.208 26.679L292.29 29.8992L297.969 38.6448L304.678 34.288ZM309.606 32.688L316.3 28.3062L312.951 23.191L307.136 25.079L309.606 32.688ZM323.558 54V62H338.358L330.252 49.6182L323.558 54ZM291.942 31.6H283.942V39.6H291.942V31.6ZM311.782 30.512L315.629 37.5265L315.667 37.5058L315.705 37.4846L311.782 30.512ZM314.982 27.376L321.901 31.3931L321.901 31.3931L314.982 27.376ZM314.854 18.416L307.976 22.5003L308.052 22.6281L308.132 22.753L314.854 18.416ZM311.398 15.216L307.655 22.2863L307.697 22.3086L307.74 22.3303L311.398 15.216ZM291.942 14.064V6.064H283.942V14.064H291.942ZM286.95 54H294.95V9.2H286.95H278.95V54H286.95ZM286.95 9.2V17.2H307.302V9.2V1.2H286.95V9.2ZM307.302 9.2V17.2C308.694 17.2 309.719 17.5004 310.562 17.972L314.47 10.992L318.379 4.01195C314.955 2.09431 311.201 1.2 307.302 1.2V9.2ZM314.47 10.992L310.562 17.972C311.473 18.4822 312.128 19.126 312.642 19.9946L319.526 15.92L326.411 11.8454C324.45 8.53264 321.735 5.89114 318.379 4.01195L314.47 10.992ZM319.526 15.92L312.679 20.0569C313.097 20.7482 313.382 21.6192 313.382 22.896H321.382H329.382C329.382 18.9674 328.431 15.1878 326.374 11.7831L319.526 15.92ZM321.382 22.896H313.382C313.382 24.0507 313.115 24.8689 312.679 25.568L319.462 29.808L326.246 34.048C328.37 30.6511 329.382 26.8613 329.382 22.896H321.382ZM319.462 29.808L312.615 25.6711C312.134 26.467 311.482 27.1161 310.492 27.6594L314.342 34.672L318.193 41.6846C321.555 39.8385 324.316 37.245 326.31 33.9449L319.462 29.808ZM314.342 34.672L310.492 27.6594C309.574 28.1638 308.501 28.464 307.11 28.464V36.464V44.464C311.011 44.464 314.759 43.5696 318.193 41.6846L314.342 34.672ZM307.11 36.464V28.464H291.942V36.464V44.464H307.11V36.464ZM291.942 36.464H283.942V54H291.942H299.942V36.464H291.942ZM291.942 54V46H286.95V54V62H291.942V54ZM317.478 54L324.188 49.6432L311.388 29.9312L304.678 34.288L297.969 38.6448L310.769 58.3568L317.478 54ZM304.678 34.288L307.149 41.897L312.077 40.297L309.606 32.688L307.136 25.079L302.208 26.679L304.678 34.288ZM309.606 32.688L302.913 37.0698L316.865 58.3818L323.558 54L330.252 49.6182L316.3 28.3062L309.606 32.688ZM323.558 54V46H317.478V54V62H323.558V54ZM291.942 31.6V39.6H307.11V31.6V23.6H291.942V31.6ZM307.11 31.6V39.6C309.994 39.6 312.924 39.0099 315.629 37.5265L311.782 30.512L307.936 23.4975C307.951 23.4894 307.92 23.5105 307.808 23.5365C307.691 23.5638 307.468 23.6 307.11 23.6V31.6ZM311.782 30.512L315.705 37.4846C318.283 36.0343 320.398 33.9817 321.901 31.3931L314.982 27.376L308.064 23.3589C308.033 23.4131 308.014 23.4314 308.007 23.4383C307.999 23.4461 307.961 23.4828 307.86 23.5394L311.782 30.512ZM314.982 27.376L321.901 31.3931C323.439 28.7441 324.134 25.843 324.134 22.896H316.134H308.134C308.134 23.1087 308.111 23.2251 308.099 23.2717C308.088 23.3145 308.077 23.3365 308.064 23.3589L314.982 27.376ZM316.134 22.896H324.134C324.134 19.7858 323.313 16.7698 321.577 14.079L314.854 18.416L308.132 22.753C308.138 22.7614 308.136 22.7601 308.132 22.7504C308.127 22.7407 308.124 22.7313 308.122 22.7258C308.121 22.7204 308.123 22.7276 308.127 22.7513C308.13 22.7756 308.134 22.8225 308.134 22.896H316.134ZM314.854 18.416L321.733 14.3317C320.11 11.5982 317.807 9.51574 315.057 8.1017L311.398 15.216L307.74 22.3303C307.885 22.4052 307.94 22.4553 307.947 22.4621C307.953 22.4675 307.955 22.4703 307.957 22.4722C307.958 22.4741 307.965 22.4821 307.976 22.5003L314.854 18.416ZM311.398 15.216L315.142 8.1457C312.356 6.67119 309.346 6.064 306.342 6.064V14.064V22.064C307.179 22.064 307.539 22.2248 307.655 22.2863L311.398 15.216ZM306.342 14.064V6.064H291.942V14.064V22.064H306.342V14.064ZM291.942 14.064H283.942V31.6H291.942H299.942V14.064H291.942Z" fill="white" mask="url(#path-2-outside-1_0_1)"/>
</svg>
